<mxfile host="app.diagrams.net" modified="2025-03-27T12:19:33.104Z" agent="5.0 (Windows NT 10.0; Win64; x64) AppleWebKit/537.36 (KHTML, like Gecko) Chrome/109.0.0.0 Safari/537.36" etag="450WmhiJq104lxRHMKQl" version="20.3.3" type="github">
  <diagram id="prtHgNgQTEPvFCAcTncT" name="Page-1">
    <mxGraphModel dx="186" dy="1708" grid="1" gridSize="10" guides="1" tooltips="1" connect="1" arrows="1" fold="1" page="1" pageScale="1" pageWidth="827" pageHeight="1169" math="0" shadow="0">
      <root>
        <mxCell id="0" />
        <mxCell id="1" parent="0" />
        <mxCell id="z5HHX3oDI2Lj4jvNRuJT-1" value="" style="rounded=1;whiteSpace=wrap;html=1;dashed=1;fillColor=#FFFFFF;strokeColor=#B85450;strokeWidth=3;" vertex="1" parent="1">
          <mxGeometry x="760" y="-240" width="690" height="440" as="geometry" />
        </mxCell>
        <mxCell id="z5HHX3oDI2Lj4jvNRuJT-3" value="UI" style="rounded=1;whiteSpace=wrap;html=1;strokeColor=#000000;fillColor=#FFFFFF;" vertex="1" parent="1">
          <mxGeometry x="590" y="-220" width="120" height="60" as="geometry" />
        </mxCell>
        <mxCell id="z5HHX3oDI2Lj4jvNRuJT-4" style="edgeStyle=orthogonalEdgeStyle;rounded=0;orthogonalLoop=1;jettySize=auto;html=1;exitX=0.5;exitY=1;exitDx=0;exitDy=0;" edge="1" parent="1" source="z5HHX3oDI2Lj4jvNRuJT-3" target="z5HHX3oDI2Lj4jvNRuJT-3">
          <mxGeometry relative="1" as="geometry" />
        </mxCell>
      </root>
    </mxGraphModel>
  </diagram>
</mxfile>
